<?xml version="1.0" encoding="UTF-8"?><svg xmlns="http://www.w3.org/2000/svg" xmlns:xlink="http://www.w3.org/1999/xlink" width="375" zoomAndPan="magnify" viewBox="0 0 375 374.999991" height="374.999991" preserveAspectRatio="xMidYMid meet" version="1.0"><defs><clipPath id="clip-0"><path d="M 81 72 L 165 72 L 165 127 L 81 127 Z M 81 72 " clip-rule="nonzero"/></clipPath><clipPath id="clip-1"><path d="M 30.679688 143.90625 L 144.171875 30.417969 L 344.636719 230.882812 L 231.144531 344.371094 Z M 30.679688 143.90625 " clip-rule="nonzero"/></clipPath><clipPath id="clip-2"><path d="M 30.679688 143.90625 L 144.171875 30.417969 L 344.636719 230.882812 L 231.144531 344.371094 Z M 30.679688 143.90625 " clip-rule="nonzero"/></clipPath><clipPath id="clip-3"><path d="M 248 210 L 303 210 L 303 294 L 248 294 Z M 248 210 " clip-rule="nonzero"/></clipPath><clipPath id="clip-4"><path d="M 30.679688 143.90625 L 144.171875 30.417969 L 344.636719 230.882812 L 231.144531 344.371094 Z M 30.679688 143.90625 " clip-rule="nonzero"/></clipPath><clipPath id="clip-5"><path d="M 30.679688 143.90625 L 144.171875 30.417969 L 344.636719 230.882812 L 231.144531 344.371094 Z M 30.679688 143.90625 " clip-rule="nonzero"/></clipPath><clipPath id="clip-6"><path d="M 48 88 L 287 88 L 287 327 L 48 327 Z M 48 88 " clip-rule="nonzero"/></clipPath><clipPath id="clip-7"><path d="M 30.679688 143.90625 L 144.171875 30.417969 L 344.636719 230.882812 L 231.144531 344.371094 Z M 30.679688 143.90625 " clip-rule="nonzero"/></clipPath><clipPath id="clip-8"><path d="M 30.679688 143.90625 L 144.171875 30.417969 L 344.636719 230.882812 L 231.144531 344.371094 Z M 30.679688 143.90625 " clip-rule="nonzero"/></clipPath><clipPath id="clip-9"><path d="M 94 147 L 125 147 L 125 178 L 94 178 Z M 94 147 " clip-rule="nonzero"/></clipPath><clipPath id="clip-10"><path d="M 30.679688 143.90625 L 144.171875 30.417969 L 344.636719 230.882812 L 231.144531 344.371094 Z M 30.679688 143.90625 " clip-rule="nonzero"/></clipPath><clipPath id="clip-11"><path d="M 30.679688 143.90625 L 144.171875 30.417969 L 344.636719 230.882812 L 231.144531 344.371094 Z M 30.679688 143.90625 " clip-rule="nonzero"/></clipPath><clipPath id="clip-12"><path d="M 208 194 L 236 194 L 236 222 L 208 222 Z M 208 194 " clip-rule="nonzero"/></clipPath><clipPath id="clip-13"><path d="M 30.679688 143.90625 L 144.171875 30.417969 L 344.636719 230.882812 L 231.144531 344.371094 Z M 30.679688 143.90625 " clip-rule="nonzero"/></clipPath><clipPath id="clip-14"><path d="M 30.679688 143.90625 L 144.171875 30.417969 L 344.636719 230.882812 L 231.144531 344.371094 Z M 30.679688 143.90625 " clip-rule="nonzero"/></clipPath><clipPath id="clip-15"><path d="M 118 148 L 146 148 L 146 177 L 118 177 Z M 118 148 " clip-rule="nonzero"/></clipPath><clipPath id="clip-16"><path d="M 30.679688 143.90625 L 144.171875 30.417969 L 344.636719 230.882812 L 231.144531 344.371094 Z M 30.679688 143.90625 " clip-rule="nonzero"/></clipPath><clipPath id="clip-17"><path d="M 30.679688 143.90625 L 144.171875 30.417969 L 344.636719 230.882812 L 231.144531 344.371094 Z M 30.679688 143.90625 " clip-rule="nonzero"/></clipPath><clipPath id="clip-18"><path d="M 207 214 L 235 214 L 235 243 L 207 243 Z M 207 214 " clip-rule="nonzero"/></clipPath><clipPath id="clip-19"><path d="M 30.679688 143.90625 L 144.171875 30.417969 L 344.636719 230.882812 L 231.144531 344.371094 Z M 30.679688 143.90625 " clip-rule="nonzero"/></clipPath><clipPath id="clip-20"><path d="M 30.679688 143.90625 L 144.171875 30.417969 L 344.636719 230.882812 L 231.144531 344.371094 Z M 30.679688 143.90625 " clip-rule="nonzero"/></clipPath><clipPath id="clip-21"><path d="M 211 273 L 225 273 L 225 287 L 211 287 Z M 211 273 " clip-rule="nonzero"/></clipPath><clipPath id="clip-22"><path d="M 30.679688 143.90625 L 144.171875 30.417969 L 344.636719 230.882812 L 231.144531 344.371094 Z M 30.679688 143.90625 " clip-rule="nonzero"/></clipPath><clipPath id="clip-23"><path d="M 30.679688 143.90625 L 144.171875 30.417969 L 344.636719 230.882812 L 231.144531 344.371094 Z M 30.679688 143.90625 " clip-rule="nonzero"/></clipPath><clipPath id="clip-24"><path d="M 173 176 L 187 176 L 187 190 L 173 190 Z M 173 176 " clip-rule="nonzero"/></clipPath><clipPath id="clip-25"><path d="M 30.679688 143.90625 L 144.171875 30.417969 L 344.636719 230.882812 L 231.144531 344.371094 Z M 30.679688 143.90625 " clip-rule="nonzero"/></clipPath><clipPath id="clip-26"><path d="M 30.679688 143.90625 L 144.171875 30.417969 L 344.636719 230.882812 L 231.144531 344.371094 Z M 30.679688 143.90625 " clip-rule="nonzero"/></clipPath><clipPath id="clip-27"><path d="M 169 134 L 183 134 L 183 147 L 169 147 Z M 169 134 " clip-rule="nonzero"/></clipPath><clipPath id="clip-28"><path d="M 30.679688 143.90625 L 144.171875 30.417969 L 344.636719 230.882812 L 231.144531 344.371094 Z M 30.679688 143.90625 " clip-rule="nonzero"/></clipPath><clipPath id="clip-29"><path d="M 30.679688 143.90625 L 144.171875 30.417969 L 344.636719 230.882812 L 231.144531 344.371094 Z M 30.679688 143.90625 " clip-rule="nonzero"/></clipPath><clipPath id="clip-30"><path d="M 124 192 L 138 192 L 138 206 L 124 206 Z M 124 192 " clip-rule="nonzero"/></clipPath><clipPath id="clip-31"><path d="M 30.679688 143.90625 L 144.171875 30.417969 L 344.636719 230.882812 L 231.144531 344.371094 Z M 30.679688 143.90625 " clip-rule="nonzero"/></clipPath><clipPath id="clip-32"><path d="M 30.679688 143.90625 L 144.171875 30.417969 L 344.636719 230.882812 L 231.144531 344.371094 Z M 30.679688 143.90625 " clip-rule="nonzero"/></clipPath><clipPath id="clip-33"><path d="M 173 227 L 186 227 L 186 241 L 173 241 Z M 173 227 " clip-rule="nonzero"/></clipPath><clipPath id="clip-34"><path d="M 30.679688 143.90625 L 144.171875 30.417969 L 344.636719 230.882812 L 231.144531 344.371094 Z M 30.679688 143.90625 " clip-rule="nonzero"/></clipPath><clipPath id="clip-35"><path d="M 30.679688 143.90625 L 144.171875 30.417969 L 344.636719 230.882812 L 231.144531 344.371094 Z M 30.679688 143.90625 " clip-rule="nonzero"/></clipPath></defs><g clip-path="url(#clip-0)"><g clip-path="url(#clip-1)"><g clip-path="url(#clip-2)"><path fill="rgb(85.099792%, 85.099792%, 85.099792%)" d="M 164.792969 117.78125 L 164.808594 102.078125 C 164.816406 94.3125 161.804688 87.023438 156.308594 81.527344 C 151.902344 77.121094 146.0625 74.21875 139.882812 73.328125 C 129.339844 71.820312 118.539062 75.449219 110.996094 82.992188 L 110.199219 83.789062 L 104.003906 82.554688 C 97.746094 81.308594 91.324219 83.265625 86.804688 87.78125 C 83.210938 91.375 81.21875 96.171875 81.214844 101.253906 C 81.207031 110.632812 84.699219 119.441406 91.011719 126.289062 C 114.238281 115.59375 140.15625 112.761719 164.792969 117.78125 " fill-opacity="1" fill-rule="nonzero"/></g></g></g><g clip-path="url(#clip-3)"><g clip-path="url(#clip-4)"><g clip-path="url(#clip-5)"><path fill="rgb(85.099792%, 85.099792%, 85.099792%)" d="M 257.222656 210.257812 L 256.855469 210.269531 C 261.609375 234.71875 258.625 260.4375 248.234375 283.558594 C 255.140625 290.1875 264.191406 293.847656 273.800781 293.835938 C 278.882812 293.832031 283.675781 291.839844 287.269531 288.246094 C 291.789062 283.730469 293.742188 277.304688 292.496094 271.046875 L 291.261719 264.851562 L 292.0625 264.054688 C 299.605469 256.511719 303.21875 245.699219 301.722656 235.167969 C 300.832031 228.988281 297.929688 223.148438 293.523438 218.742188 C 288.027344 213.246094 280.738281 210.234375 272.972656 210.242188 L 257.222656 210.257812 " fill-opacity="1" fill-rule="nonzero"/></g></g></g><g clip-path="url(#clip-6)"><g clip-path="url(#clip-7)"><g clip-path="url(#clip-8)"><path fill="rgb(100%, 100%, 100%)" d="M 255.890625 190.296875 C 250.417969 175.40625 242 161.445312 230.570312 149.382812 C 217.609375 135.691406 202.109375 125.378906 185.058594 118.859375 L 194.03125 109.886719 C 210.425781 115.496094 225.550781 124.847656 237.875 137.175781 C 250.214844 149.515625 259.570312 164.640625 265.164062 181.019531 Z M 219.75 316.964844 C 218.941406 317.773438 217.601562 317.777344 216.792969 316.96875 L 58.097656 158.269531 C 57.273438 157.449219 57.277344 156.109375 58.085938 155.300781 L 59.84375 153.539062 C 81.90625 131.480469 111.210938 119.554688 142.386719 119.953125 C 173.527344 120.335938 202.480469 133.039062 223.910156 155.6875 C 266.042969 200.195312 264.175781 272.542969 219.75 316.964844 Z M 244.355469 130.695312 C 230.449219 116.789062 213.265625 106.339844 194.636719 100.414062 L 188.765625 94.542969 C 186.539062 92.320312 183.8125 90.628906 180.828125 89.644531 C 175.671875 87.929688 170.171875 88.328125 165.316406 90.761719 L 162.976562 91.9375 C 164.070312 94.882812 164.6875 98.03125 164.773438 101.253906 L 169.402344 98.949219 C 172.058594 97.605469 175.105469 97.390625 177.925781 98.335938 C 179.554688 98.875 181.058594 99.796875 182.285156 101.023438 L 186.125 104.863281 L 175.339844 115.644531 C 164.8125 112.609375 153.800781 110.9375 142.511719 110.785156 C 142.398438 110.796875 142.269531 110.796875 142.144531 110.800781 L 142.160156 95.199219 L 133.007812 95.207031 L 132.992188 111.0625 C 128.425781 111.355469 123.9375 111.878906 119.488281 112.644531 L 119.496094 104.929688 L 110.339844 104.941406 L 110.332031 114.597656 C 93.828125 118.777344 78.371094 126.351562 64.804688 136.984375 L 62.195312 131.792969 L 67.105469 126.882812 L 70.351562 117.167969 L 75.097656 112.421875 L 82.519531 110.9375 C 81.726562 108.015625 81.289062 104.96875 81.238281 101.859375 L 70.578125 104.007812 L 62.367188 112.222656 L 59.121094 121.933594 L 51.070312 129.984375 L 57.59375 143.0625 C 56.164062 144.367188 54.757812 145.695312 53.378906 147.074219 L 51.621094 148.832031 C 47.226562 153.226562 47.222656 160.355469 51.617188 164.75 L 210.3125 323.449219 C 214.683594 327.816406 221.828125 327.824219 226.21875 323.433594 C 228.28125 321.367188 230.21875 319.230469 232.089844 317.078125 L 242.164062 320.417969 L 248.644531 313.9375 L 258.351562 317.164062 L 271.410156 304.105469 L 271.421875 293.710938 C 268.273438 293.527344 265.203125 292.933594 262.269531 291.976562 L 262.261719 300.320312 L 255.882812 306.699219 L 246.175781 303.472656 L 239.695312 309.953125 L 238.28125 309.472656 C 249.207031 294.785156 256.59375 278.203125 260.40625 261.003906 L 260.40625 261.484375 L 273.351562 261.46875 L 273.359375 252.316406 L 262.007812 252.328125 C 262.515625 248.914062 262.914062 245.488281 263.15625 242.0625 L 279.84375 242.042969 L 279.855469 232.890625 L 263.429688 232.921875 C 263.40625 221.832031 261.9375 210.796875 259 200.117188 L 270.1875 188.929688 L 274.027344 192.765625 C 275.253906 193.992188 276.175781 195.496094 276.71875 197.125 C 277.664062 199.945312 277.445312 202.992188 276.113281 205.660156 L 273.796875 210.277344 C 277.019531 210.363281 280.167969 210.980469 283.125 212.089844 L 284.289062 209.738281 C 286.722656 204.878906 287.121094 199.378906 285.40625 194.222656 C 284.421875 191.238281 282.730469 188.511719 280.507812 186.289062 L 274.648438 180.425781 C 268.726562 161.796875 258.261719 144.601562 244.355469 130.695312 " fill-opacity="1" fill-rule="nonzero"/></g></g></g><g clip-path="url(#clip-9)"><g clip-path="url(#clip-10)"><g clip-path="url(#clip-11)"><path fill="rgb(100%, 100%, 100%)" d="M 103.269531 147.023438 L 94.113281 147.03125 L 94.109375 150.824219 C 94.105469 157.855469 96.941406 164.71875 101.90625 169.679688 C 106.867188 174.644531 113.730469 177.480469 120.761719 177.476562 L 124.554688 177.472656 L 124.5625 168.316406 L 120.769531 168.320312 C 116.15625 168.3125 111.644531 166.460938 108.386719 163.199219 C 105.125 159.941406 103.273438 155.429688 103.265625 150.816406 L 103.269531 147.023438 " fill-opacity="1" fill-rule="nonzero"/></g></g></g><g clip-path="url(#clip-12)"><g clip-path="url(#clip-13)"><g clip-path="url(#clip-14)"><path fill="rgb(100%, 100%, 100%)" d="M 208.6875 194.125 L 208.679688 203.277344 L 214.761719 203.285156 C 217.910156 203.269531 221.003906 204.542969 223.238281 206.777344 C 225.476562 209.011719 226.75 212.109375 226.734375 215.257812 L 226.738281 221.339844 L 235.894531 221.328125 L 235.914062 215.246094 C 235.90625 209.671875 233.660156 204.238281 229.71875 200.296875 C 225.78125 196.355469 220.34375 194.113281 214.769531 194.105469 L 208.6875 194.125 " fill-opacity="1" fill-rule="nonzero"/></g></g></g><g clip-path="url(#clip-15)"><g clip-path="url(#clip-16)"><g clip-path="url(#clip-17)"><path fill="rgb(100%, 100%, 100%)" d="M 124.191406 148.886719 L 118.109375 148.90625 L 118.101562 158.058594 L 124.179688 158.0625 C 127.328125 158.046875 130.425781 159.320312 132.660156 161.558594 C 134.898438 163.792969 136.171875 166.890625 136.15625 170.039062 L 136.160156 176.117188 L 145.316406 176.109375 L 145.332031 170.027344 C 145.328125 164.453125 143.082031 159.019531 139.140625 155.078125 C 135.199219 151.136719 129.765625 148.890625 124.191406 148.886719 " fill-opacity="1" fill-rule="nonzero"/></g></g></g><g clip-path="url(#clip-18)"><g clip-path="url(#clip-19)"><g clip-path="url(#clip-20)"><path fill="rgb(100%, 100%, 100%)" d="M 216.480469 214.875 L 207.328125 214.886719 L 207.308594 220.964844 C 207.316406 226.542969 209.558594 231.976562 213.5 235.917969 C 217.441406 239.859375 222.875 242.101562 228.449219 242.109375 L 234.53125 242.089844 L 234.542969 232.9375 L 228.460938 232.929688 C 225.3125 232.945312 222.214844 231.671875 219.980469 229.4375 C 217.746094 227.203125 216.472656 224.105469 216.488281 220.957031 L 216.480469 214.875 " fill-opacity="1" fill-rule="nonzero"/></g></g></g><g clip-path="url(#clip-21)"><g clip-path="url(#clip-22)"><g clip-path="url(#clip-23)"><path fill="rgb(100%, 100%, 100%)" d="M 218.304688 286.078125 L 224.785156 279.601562 L 218.316406 273.132812 L 211.835938 279.613281 L 218.304688 286.078125 " fill-opacity="1" fill-rule="nonzero"/></g></g></g><g clip-path="url(#clip-24)"><g clip-path="url(#clip-25)"><g clip-path="url(#clip-26)"><path fill="rgb(100%, 100%, 100%)" d="M 179.5625 189.019531 L 186.042969 182.539062 L 179.578125 176.074219 L 173.097656 182.554688 L 179.5625 189.019531 " fill-opacity="1" fill-rule="nonzero"/></g></g></g><g clip-path="url(#clip-27)"><g clip-path="url(#clip-28)"><g clip-path="url(#clip-29)"><path fill="rgb(100%, 100%, 100%)" d="M 176.371094 146.949219 L 182.851562 140.46875 L 176.382812 134 L 169.902344 140.480469 L 176.371094 146.949219 " fill-opacity="1" fill-rule="nonzero"/></g></g></g><g clip-path="url(#clip-30)"><g clip-path="url(#clip-31)"><g clip-path="url(#clip-32)"><path fill="rgb(100%, 100%, 100%)" d="M 131.011719 192.308594 L 124.53125 198.789062 L 131 205.253906 L 137.476562 198.773438 L 131.011719 192.308594 " fill-opacity="1" fill-rule="nonzero"/></g></g></g><g clip-path="url(#clip-33)"><g clip-path="url(#clip-34)"><g clip-path="url(#clip-35)"><path fill="rgb(100%, 100%, 100%)" d="M 179.511719 240.808594 L 185.992188 234.328125 L 179.523438 227.859375 L 173.042969 234.339844 L 179.511719 240.808594 " fill-opacity="1" fill-rule="nonzero"/></g></g></g><path fill="rgb(100%, 100%, 100%)" d="M 137.007812 131.550781 L 145.257812 131.550781 L 145.257812 139.800781 L 137.007812 139.800781 Z M 137.007812 131.550781 " fill-opacity="1" fill-rule="nonzero"/><path fill="rgb(100%, 100%, 100%)" d="M 160.164062 162.859375 L 168.414062 162.859375 L 168.414062 171.109375 L 160.164062 171.109375 Z M 160.164062 162.859375 " fill-opacity="1" fill-rule="nonzero"/><path fill="rgb(100%, 100%, 100%)" d="M 237.953125 246.316406 L 246.203125 246.316406 L 246.203125 254.566406 L 237.953125 254.566406 Z M 237.953125 246.316406 " fill-opacity="1" fill-rule="nonzero"/><path fill="rgb(100%, 100%, 100%)" d="M 73.285156 154.703125 L 81.535156 154.703125 L 81.535156 162.953125 L 73.285156 162.953125 Z M 73.285156 154.703125 " fill-opacity="1" fill-rule="nonzero"/><path fill="rgb(100%, 100%, 100%)" d="M 205.164062 161.550781 L 213.414062 161.550781 L 213.414062 169.800781 L 205.164062 169.800781 Z M 205.164062 161.550781 " fill-opacity="1" fill-rule="nonzero"/><path fill="rgb(100%, 100%, 100%)" d="M 156.085938 207.472656 L 164.335938 207.472656 L 164.335938 215.722656 L 156.085938 215.722656 Z M 156.085938 207.472656 " fill-opacity="1" fill-rule="nonzero"/><path fill="rgb(100%, 100%, 100%)" d="M 197.007812 265.777344 L 205.257812 265.777344 L 205.257812 274.027344 L 197.007812 274.027344 Z M 197.007812 265.777344 " fill-opacity="1" fill-rule="nonzero"/></svg>